<svg width="278" height="117" viewBox="0 0 278 117" fill="none" xmlns="http://www.w3.org/2000/svg">
<path d="M19.8164 94.0663H0.273438V35.541H9.90167V86.6591H19.8005L19.8164 94.0663Z" fill="#07181F"/>
<path d="M33.4236 94.0663H23.7715V35.541H33.4236V94.0663Z" fill="#07181F"/>
<path d="M55.9983 52.4311V47.0996C55.9983 43.1762 55.4094 42.4354 51.9719 42.4354C48.5344 42.4354 47.858 43.2494 47.858 47.0996V82.4345C47.858 86.4312 48.4469 87.2533 52.3857 87.2533C53.6783 87.2694 54.9697 87.1686 56.2449 86.9521V60.0907H65.3082V94.0907C61.1901 94.6368 57.0393 94.8843 52.887 94.8314C40.5613 94.8314 38.2139 92.9756 38.2139 82.4589V47.124C38.2139 36.3794 40.983 34.8247 51.9719 34.8247C62.7858 34.8247 65.3082 36.3062 65.3082 47.124V52.4556L55.9983 52.4311Z" fill="#07181F"/>
<path d="M98.0201 94.0663H88.2885V62.0606H79.9254V94.0663H70.2812V35.541H79.9254V54.8812H88.3123V35.541H98.044L98.0201 94.0663Z" fill="#07181F"/>
<path d="M124.486 42.6552H118.868V94.0663H109.216V42.6552H101.919V35.541H124.486V42.6552Z" fill="#07181F"/>
<path d="M190.061 82.4345C190.061 93.3256 187.627 94.807 176.224 94.807C164.821 94.807 162.466 93.3256 162.466 82.4345V47.0996C162.466 36.2818 164.813 34.8003 176.224 34.8003C187.635 34.8003 190.061 36.2818 190.061 47.0996V82.4345ZM180.33 47.0996C180.33 43.1762 179.741 42.4354 176.303 42.4354C172.699 42.4354 172.11 43.2494 172.11 47.0996V82.4345C172.11 86.5044 172.699 87.2533 176.136 87.2533C179.828 87.2533 180.33 86.3579 180.33 82.4345V47.0996Z" fill="#07181F"/>
<path d="M194.677 82.4345V35.541H204.321V82.4345C204.321 86.5044 204.989 87.1719 208.435 87.1719C211.88 87.1719 212.541 86.5126 212.541 82.4345V35.541H221.938V82.4345C221.938 93.3256 219.424 94.807 208.347 94.807C197.271 94.807 194.677 93.3256 194.677 82.4345Z" fill="#07181F"/>
<path d="M244.346 54.5068V47.2461C244.346 43.1029 243.924 42.4354 240.232 42.4354C236.54 42.4354 236.126 43.1029 236.126 47.2461V53.0254C236.126 55.394 236.46 56.208 238.64 57.3964C240.486 58.4302 243.924 59.7651 247.704 61.8408C253.401 64.9502 254.069 66.5049 254.069 73.0249V82.4345C254.069 93.2523 251.682 94.807 240.311 94.807C229.402 94.807 226.784 93.3988 226.784 82.4345V70.8027H236.174V82.4345C236.174 86.5044 236.683 87.2533 240.2 87.2533C243.717 87.2533 244.314 86.5126 244.314 82.4345V73.6191C244.314 70.5097 244.147 69.4678 242.046 68.2142C239.786 66.8061 234.885 64.7304 231.702 62.8745C226.999 60.1396 226.41 58.3569 226.41 52.8788V47.2461C226.41 36.355 228.678 34.8003 240.001 34.8003C251.324 34.8003 253.68 36.355 253.68 47.2461V54.5068H244.346Z" fill="#07181F"/>
<path d="M277.727 94.0663H258.765V35.541H277.639V42.582H268.409V51.0962H277.385V57.8441H268.409V86.7323H277.727V94.0663Z" fill="#07181F"/>
<path d="M157.357 94.0663H147.967V65.6908L139.58 69.7608V94.0988H130.271L132.101 38.0155H139.58V59.7488L147.967 58.9348V38.0073H155.519L157.357 94.0663Z" fill="#07181F"/>
<path d="M155.655 67.2862L131.958 74.6853L132.412 61.6616L133.597 61.2871L154.286 54.8241L155.464 54.4497C155.519 59.9848 155.655 67.2862 155.655 67.2862Z" fill="#07181F"/>
<g clip-path="url(#clip0_10_347)">
<path d="M0 112.843H2.6754L2.73114 113.214C2.76525 113.514 2.87713 113.799 3.05517 114.04C3.23322 114.281 3.47097 114.469 3.74373 114.584C4.68042 114.915 5.67154 115.054 6.66064 114.993C7.60978 115.06 8.56162 114.911 9.44752 114.555C9.67892 114.455 9.87728 114.289 10.0189 114.076C10.1606 113.864 10.2396 113.614 10.2464 113.357C10.2464 112.938 9.93988 112.624 9.31748 112.406C8.17154 112.082 6.99935 111.866 5.81529 111.759C4.28415 111.654 2.80128 111.167 1.49564 110.342C1.11017 110.064 0.796306 109.695 0.581081 109.266C0.365855 108.837 0.255731 108.361 0.260135 107.878C0.248925 107.33 0.378593 106.788 0.636192 106.308C0.893791 105.827 1.27026 105.424 1.72788 105.139C3.10577 104.394 4.66139 104.065 6.21473 104.188C7.80974 104.084 9.40522 104.384 10.8595 105.063C11.3425 105.319 11.7522 105.699 12.0486 106.166C12.3449 106.633 12.5178 107.17 12.5502 107.726V108.135H9.89343V107.907C9.85032 107.658 9.75377 107.423 9.61078 107.217C9.46779 107.011 9.28191 106.841 9.06664 106.718C8.18985 106.328 7.2321 106.168 6.27977 106.252C5.43703 106.188 4.59132 106.325 3.80873 106.651C3.61904 106.73 3.45391 106.86 3.33113 107.028C3.20835 107.195 3.13259 107.394 3.11202 107.602C3.11202 107.973 3.4 108.278 3.96667 108.554C5.12201 108.927 6.31614 109.16 7.52457 109.248C9.02291 109.382 10.4843 109.798 11.8349 110.475C12.2479 110.736 12.5826 111.108 12.8022 111.551C13.0218 111.994 13.1178 112.491 13.0797 112.986C13.0996 113.583 12.9637 114.174 12.6861 114.699C12.4086 115.224 11.9993 115.663 11.5005 115.973C10.0432 116.774 8.39501 117.14 6.74424 117.028C5.07589 117.115 3.40962 116.82 1.86721 116.163C1.35383 115.934 0.912559 115.564 0.592676 115.094C0.272792 114.624 0.0869135 114.072 0.0557636 113.5L0 112.843Z" fill="#5A939F"/>
<path d="M17.306 110.428C17.2645 109.51 17.4537 108.597 17.8554 107.776C18.2572 106.955 18.8581 106.254 19.6006 105.738C21.2837 104.62 23.262 104.059 25.2672 104.131C27.2723 104.06 29.2502 104.621 30.9339 105.738C31.6776 106.252 32.2795 106.954 32.6814 107.775C33.0833 108.596 33.2717 109.51 33.2284 110.428V110.532C33.2807 111.471 33.0973 112.408 32.6956 113.254C32.294 114.1 31.6875 114.826 30.9339 115.364C29.2549 116.494 27.2757 117.066 25.2672 117C23.2586 117.067 21.279 116.496 19.6006 115.364C18.8483 114.825 18.2427 114.098 17.8412 113.253C17.4397 112.407 17.2555 111.471 17.306 110.532V110.428ZM21.7558 113.814C22.7735 114.588 24.0187 114.984 25.2858 114.936C26.5444 115.008 27.7868 114.617 28.788 113.833C29.2445 113.441 29.605 112.946 29.8405 112.386C30.0761 111.826 30.1801 111.217 30.1442 110.608V110.437C30.1806 109.849 30.076 109.261 29.8396 108.724C29.6032 108.187 29.2422 107.717 28.788 107.355C27.768 106.612 26.5369 106.234 25.2858 106.281C24.0221 106.201 22.7707 106.574 21.7465 107.336C21.2962 107.704 20.9383 108.176 20.7024 108.714C20.4665 109.251 20.3594 109.839 20.3902 110.428V110.58C20.3525 111.191 20.4565 111.802 20.6939 112.364C20.9312 112.927 21.2951 113.423 21.7558 113.814Z" fill="#5A939F"/>
<path d="M38.5801 104.388H48.7986V106.709H41.562V109.705H48.2691V111.731H41.562V116.743H38.6172L38.5801 104.388Z" fill="#5A939F"/>
<path d="M53.0811 104.388H66.0122V106.775H61.0422V116.743H58.051V106.775H53.0811V104.388Z" fill="#5A939F"/>
<path d="M70.0244 104.388H72.9321L76.0626 113.395L76.1277 113.604C76.1277 113.652 76.1741 113.728 76.2113 113.814C76.2113 113.718 76.267 113.642 76.2856 113.595L76.3692 113.395L79.6577 104.388H82.1473L85.538 113.414C85.5578 113.49 85.5858 113.563 85.6216 113.633C85.6514 113.691 85.6762 113.751 85.6959 113.814C85.728 113.752 85.756 113.689 85.7796 113.623C85.8017 113.555 85.8203 113.485 85.8353 113.414L88.873 104.388H91.6599L87.3216 116.753H84.4047L81.0233 107.84C81.0233 107.764 80.9676 107.698 80.9583 107.66L80.8932 107.498C80.8791 107.553 80.8605 107.607 80.8375 107.66C80.8375 107.66 80.8375 107.764 80.7725 107.84L77.3725 116.753H74.372L70.0244 104.388Z" fill="#5A939F"/>
<path d="M100.105 104.35H103.087L109.209 116.715H105.864L101.87 107.992L101.684 107.603C101.638 107.517 101.591 107.412 101.535 107.298L101.396 107.603L101.22 108.002L97.225 116.715H93.9551L100.105 104.35ZM97.801 111.959H105.363L106.227 113.956H96.937L97.801 111.959Z" fill="#5A939F"/>
<path d="M114.058 104.388H122.14C123.224 104.315 124.293 104.684 125.112 105.415C125.467 105.792 125.741 106.241 125.918 106.732C126.096 107.223 126.172 107.746 126.143 108.268C126.175 108.819 126.097 109.37 125.913 109.889C125.729 110.407 125.444 110.882 125.075 111.284C124.675 111.661 124.205 111.951 123.692 112.138C123.18 112.324 122.636 112.402 122.093 112.368H117.012V116.772H114.058V104.388ZM121.424 110.389C121.666 110.409 121.91 110.371 122.135 110.279C122.361 110.186 122.563 110.042 122.725 109.857C123.022 109.456 123.173 108.961 123.152 108.459C123.174 107.95 123.023 107.449 122.725 107.041C122.561 106.859 122.359 106.717 122.133 106.627C121.908 106.536 121.666 106.499 121.424 106.518H117.012V110.389H121.424ZM120.616 111.436L123.291 110.922L127.082 116.743H123.84L120.616 111.436Z" fill="#5A939F"/>
<path d="M132.116 104.388H142.864V106.718H134.885V109.476H142.14V111.512H134.885V114.489H142.985V116.743H132.116V104.388Z" fill="#5A939F"/>
<path d="M156.502 112.843H159.187V113.214C159.223 113.515 159.336 113.801 159.516 114.041C159.695 114.282 159.935 114.47 160.209 114.584C161.142 114.915 162.13 115.054 163.116 114.993C164.065 115.061 165.017 114.912 165.903 114.556C166.136 114.457 166.335 114.291 166.477 114.079C166.619 113.866 166.697 113.615 166.702 113.357C166.702 112.939 166.395 112.625 165.773 112.406C164.627 112.082 163.455 111.865 162.271 111.759C160.775 111.631 159.329 111.142 158.053 110.332C157.668 110.055 157.354 109.686 157.139 109.257C156.924 108.828 156.813 108.351 156.818 107.869C156.807 107.321 156.936 106.779 157.194 106.298C157.451 105.818 157.828 105.415 158.286 105.13C159.666 104.384 161.225 104.054 162.782 104.178C164.377 104.072 165.973 104.373 167.427 105.054C167.911 105.309 168.322 105.689 168.62 106.156C168.918 106.622 169.092 107.16 169.127 107.717V108.126H166.414V107.897C166.373 107.648 166.277 107.412 166.134 107.206C165.991 107 165.804 106.83 165.587 106.709C164.71 106.319 163.753 106.159 162.8 106.242C161.958 106.18 161.112 106.317 160.329 106.642C160.14 106.721 159.974 106.851 159.852 107.018C159.729 107.186 159.653 107.385 159.633 107.593C159.633 107.964 159.921 108.268 160.496 108.544C161.649 108.918 162.84 109.151 164.045 109.239C165.544 109.371 167.005 109.787 168.355 110.466C168.769 110.727 169.104 111.099 169.325 111.542C169.546 111.984 169.645 112.481 169.61 112.977C169.627 113.574 169.49 114.166 169.211 114.69C168.931 115.215 168.521 115.655 168.021 115.963C166.564 116.766 164.916 117.132 163.265 117.019C161.596 117.106 159.93 116.81 158.388 116.153C157.874 115.925 157.433 115.555 157.113 115.085C156.793 114.615 156.607 114.062 156.576 113.49L156.502 112.843Z" fill="#5A939F"/>
<path d="M178.546 112.235L172.814 104.35H176.01L179.828 109.628L179.977 109.838L180.144 110.066H180.2L180.348 109.857L180.506 109.628L184.268 104.35H187.26L181.537 112.235V116.705H178.546V112.235Z" fill="#5A939F"/>
<path d="M190.464 112.843H193.139L193.195 113.214C193.231 113.515 193.345 113.8 193.524 114.041C193.704 114.282 193.943 114.469 194.217 114.584C195.15 114.917 196.138 115.056 197.124 114.993C198.074 115.061 199.026 114.911 199.911 114.555C200.143 114.455 200.341 114.289 200.483 114.076C200.624 113.864 200.703 113.614 200.71 113.357C200.71 112.938 200.404 112.624 199.781 112.406C198.636 112.081 197.463 111.865 196.279 111.759C194.748 111.654 193.265 111.167 191.959 110.342C191.574 110.064 191.26 109.695 191.045 109.266C190.83 108.837 190.72 108.361 190.724 107.878C190.713 107.33 190.842 106.788 191.1 106.308C191.358 105.827 191.734 105.424 192.192 105.139C193.57 104.394 195.125 104.065 196.679 104.188C198.274 104.084 199.869 104.384 201.323 105.063C201.807 105.317 202.218 105.697 202.515 106.164C202.811 106.631 202.983 107.17 203.014 107.726V108.135H200.357V107.907C200.314 107.658 200.218 107.423 200.075 107.217C199.932 107.011 199.746 106.841 199.53 106.718C198.654 106.328 197.696 106.168 196.744 106.252C195.901 106.189 195.055 106.326 194.273 106.651C194.083 106.73 193.918 106.86 193.795 107.028C193.672 107.195 193.596 107.394 193.576 107.602C193.576 107.973 193.864 108.278 194.431 108.554C195.586 108.927 196.78 109.16 197.988 109.248C199.487 109.382 200.948 109.798 202.299 110.475C202.712 110.736 203.047 111.108 203.268 111.551C203.49 111.994 203.588 112.49 203.553 112.986C203.571 113.583 203.433 114.175 203.154 114.7C202.875 115.225 202.464 115.664 201.964 115.973C200.507 116.774 198.859 117.14 197.208 117.028C195.54 117.115 193.873 116.82 192.331 116.163C191.818 115.934 191.376 115.564 191.057 115.094C190.737 114.624 190.551 114.072 190.52 113.5L190.464 112.843Z" fill="#5A939F"/>
<path d="M207.613 104.388H220.544V106.775H215.565V116.743H212.583V106.775H207.613V104.388Z" fill="#5A939F"/>
<path d="M225.746 104.388H236.503V106.718H228.524V109.476H235.77V111.512H228.524V114.489H236.615V116.743H225.746V104.388Z" fill="#5A939F"/>
<path d="M242.3 104.388H245.653L250.716 112.72L250.874 112.986L250.958 113.129C250.958 113.072 251.013 113.034 251.032 112.986L251.199 112.72L256.225 104.388H259.643V116.753H256.764V109.02V108.544C256.729 108.627 256.689 108.706 256.643 108.782C256.596 108.851 256.556 108.924 256.522 109.001L251.877 116.753H250.103L245.458 109.058L245.31 108.82L245.18 108.573C245.18 108.715 245.18 108.801 245.18 108.839C245.186 108.915 245.186 108.991 245.18 109.067V116.753H242.393L242.3 104.388Z" fill="#5A939F"/>
<path d="M264.93 112.843H267.614L267.661 113.214C267.697 113.515 267.81 113.801 267.99 114.041C268.17 114.282 268.409 114.47 268.683 114.584C269.616 114.915 270.604 115.054 271.59 114.993C272.539 115.061 273.492 114.912 274.377 114.556C274.609 114.455 274.807 114.289 274.949 114.077C275.09 113.864 275.169 113.614 275.176 113.357C275.176 112.939 274.87 112.625 274.247 112.406C273.101 112.082 271.929 111.865 270.745 111.759C269.214 111.654 267.731 111.168 266.425 110.342C266.04 110.065 265.726 109.695 265.511 109.266C265.296 108.837 265.185 108.361 265.19 107.878C265.179 107.33 265.308 106.789 265.566 106.308C265.823 105.827 266.2 105.424 266.658 105.139C268.038 104.393 269.597 104.064 271.154 104.188C272.749 104.083 274.344 104.384 275.798 105.063C276.283 105.318 276.693 105.697 276.99 106.164C277.286 106.632 277.459 107.17 277.489 107.726V108.135H274.832V107.907C274.791 107.658 274.695 107.421 274.552 107.215C274.409 107.01 274.222 106.839 274.006 106.718C273.129 106.328 272.171 106.168 271.219 106.252C270.376 106.189 269.531 106.326 268.748 106.652C268.558 106.73 268.393 106.86 268.27 107.028C268.147 107.195 268.072 107.394 268.051 107.603C268.051 107.974 268.339 108.278 268.906 108.554C270.061 108.927 271.255 109.16 272.464 109.248C273.962 109.382 275.423 109.798 276.774 110.475C277.187 110.736 277.522 111.109 277.744 111.551C277.965 111.994 278.063 112.49 278.028 112.986C278.046 113.584 277.908 114.175 277.629 114.7C277.35 115.225 276.939 115.664 276.439 115.973C274.973 116.766 273.318 117.119 271.665 116.99C269.996 117.078 268.33 116.782 266.788 116.125C266.266 115.904 265.815 115.537 265.486 115.066C265.158 114.595 264.965 114.039 264.93 113.462V112.843Z" fill="#5A939F"/>
</g>
<path d="M168.864 30.8687H168.76L166.461 30.2419C166.357 30.2133 166.27 30.1442 166.216 30.0498C166.162 29.9553 166.147 29.843 166.174 29.7372C166.202 29.6336 166.268 29.5451 166.359 29.4905C166.449 29.4358 166.557 29.4192 166.659 29.4442L168.959 30.0791C169.01 30.0924 169.058 30.1158 169.099 30.148C169.141 30.1801 169.177 30.2204 169.203 30.2665C169.23 30.3127 169.247 30.3637 169.254 30.4168C169.262 30.4698 169.259 30.5238 169.246 30.5757C169.221 30.6602 169.171 30.7344 169.102 30.7873C169.033 30.8401 168.95 30.8687 168.864 30.8687Z" fill="#EDDEA3"/>
<path d="M161.503 28.8499H161.399L156.347 27.4661C156.296 27.4529 156.248 27.4295 156.206 27.3973C156.164 27.3651 156.129 27.3248 156.103 27.2787C156.076 27.2326 156.059 27.1815 156.051 27.1285C156.044 27.0754 156.047 27.0214 156.06 26.9696C156.073 26.9177 156.096 26.869 156.127 26.8261C156.159 26.7833 156.198 26.7472 156.243 26.72C156.288 26.6928 156.338 26.6749 156.39 26.6675C156.442 26.66 156.495 26.6631 156.546 26.6766L161.606 28.0685C161.657 28.0817 161.704 28.1051 161.746 28.1374C161.788 28.1697 161.822 28.2102 161.848 28.2565C161.874 28.3028 161.891 28.354 161.897 28.407C161.903 28.46 161.899 28.5137 161.885 28.565C161.859 28.648 161.808 28.7205 161.74 28.7718C161.671 28.823 161.588 28.8504 161.503 28.8499ZM131.162 20.531C131.128 20.5396 131.093 20.5396 131.059 20.531L125.998 19.1472C125.947 19.1341 125.9 19.1106 125.858 19.0783C125.817 19.046 125.782 19.0055 125.756 18.9592C125.73 18.9129 125.713 18.8618 125.707 18.8088C125.701 18.7558 125.705 18.702 125.719 18.6507C125.732 18.599 125.755 18.5504 125.787 18.5079C125.818 18.4654 125.858 18.4298 125.903 18.4032C125.948 18.3767 125.998 18.3597 126.05 18.3532C126.102 18.3468 126.154 18.3511 126.205 18.3658L131.265 19.7496C131.366 19.7782 131.452 19.8463 131.504 19.9393C131.557 20.0323 131.571 20.1425 131.544 20.2461C131.518 20.3292 131.468 20.4016 131.399 20.4529C131.33 20.5042 131.247 20.5315 131.162 20.531Z" fill="#EDDEA3"/>
<path d="M121.048 17.7636H120.945L118.637 17.1287C118.586 17.1154 118.539 17.0921 118.497 17.0599C118.455 17.0277 118.42 16.9874 118.393 16.9413C118.367 16.8952 118.349 16.8441 118.342 16.7911C118.334 16.738 118.337 16.6841 118.351 16.6322C118.38 16.5283 118.449 16.4403 118.541 16.3871C118.633 16.3339 118.742 16.3196 118.844 16.3473L121.144 16.9741C121.194 16.9873 121.242 17.0107 121.284 17.0429C121.326 17.0751 121.361 17.1154 121.388 17.1615C121.414 17.2076 121.432 17.2587 121.439 17.3117C121.446 17.3648 121.443 17.4188 121.43 17.4706C121.406 17.5551 121.356 17.6294 121.287 17.6822C121.218 17.7351 121.134 17.7636 121.048 17.7636Z" fill="#EDDEA3"/>
<path d="M118.741 30.8688C118.652 30.8687 118.567 30.8393 118.496 30.785C118.426 30.7306 118.375 30.6543 118.351 30.5676C118.337 30.5158 118.334 30.4618 118.342 30.4088C118.349 30.3557 118.367 30.3047 118.393 30.2585C118.42 30.2124 118.455 30.1721 118.497 30.1399C118.539 30.1078 118.586 30.0844 118.637 30.0711L120.945 29.4362C121.046 29.4087 121.154 29.4233 121.245 29.4766C121.336 29.5299 121.402 29.6178 121.43 29.7211C121.457 29.8268 121.442 29.9391 121.388 30.0336C121.335 30.1281 121.247 30.1971 121.144 30.2258L118.844 30.8525L118.741 30.8688Z" fill="#EDDEA3"/>
<path d="M126.078 28.8501C125.991 28.8496 125.906 28.8198 125.837 28.7654C125.768 28.711 125.718 28.6349 125.696 28.5489C125.681 28.4976 125.677 28.4438 125.684 28.3908C125.69 28.3378 125.706 28.2867 125.732 28.2404C125.758 28.1941 125.793 28.1536 125.835 28.1213C125.876 28.089 125.924 28.0656 125.974 28.0524L131.035 26.6604C131.086 26.647 131.139 26.6439 131.19 26.6514C131.242 26.6588 131.292 26.6767 131.337 26.7039C131.382 26.7311 131.422 26.7672 131.453 26.81C131.485 26.8528 131.508 26.9016 131.52 26.9535C131.547 27.0571 131.533 27.1673 131.481 27.2603C131.429 27.3533 131.343 27.4214 131.242 27.45L126.181 28.8338L126.078 28.8501ZM156.419 20.5312C156.332 20.5307 156.247 20.5009 156.178 20.4465C156.109 20.3921 156.059 20.316 156.037 20.23C156.024 20.1782 156.021 20.1242 156.028 20.0711C156.035 20.0181 156.053 19.967 156.079 19.9209C156.106 19.8748 156.141 19.8345 156.183 19.8023C156.225 19.7702 156.272 19.7468 156.323 19.7335L161.376 18.3497C161.426 18.335 161.479 18.3307 161.531 18.3371C161.582 18.3436 161.632 18.3606 161.678 18.3871C161.723 18.4137 161.762 18.4493 161.794 18.4918C161.826 18.5343 161.848 18.5829 161.861 18.6346C161.876 18.6859 161.88 18.7397 161.874 18.7927C161.867 18.8457 161.851 18.8968 161.825 18.9431C161.799 18.9894 161.764 19.0299 161.722 19.0622C161.681 19.0945 161.633 19.1179 161.583 19.1311L156.522 20.5149C156.497 20.5254 156.47 20.531 156.442 20.5312H156.419Z" fill="#EDDEA3"/>
<path d="M166.564 17.7636C166.474 17.7644 166.387 17.7343 166.316 17.6782C166.246 17.6221 166.195 17.5432 166.174 17.4542C166.161 17.4024 166.158 17.3484 166.165 17.2954C166.172 17.2423 166.19 17.1913 166.216 17.1452C166.243 17.099 166.278 17.0587 166.32 17.0266C166.362 16.9944 166.41 16.971 166.46 16.9577L168.76 16.331C168.811 16.315 168.864 16.3097 168.917 16.3155C168.969 16.3213 169.02 16.3381 169.067 16.3648C169.113 16.3914 169.153 16.4275 169.185 16.4706C169.217 16.5138 169.241 16.5632 169.253 16.6158C169.266 16.6677 169.27 16.7217 169.262 16.7747C169.255 16.8278 169.238 16.8788 169.211 16.925C169.184 16.9711 169.149 17.0114 169.107 17.0436C169.065 17.0757 169.018 17.0991 168.967 17.1124L166.667 17.7473L166.564 17.7636Z" fill="#EDDEA3"/>
<path d="M195.934 23.9986H193.547C193.442 23.9965 193.342 23.9529 193.268 23.877C193.194 23.8012 193.151 23.6988 193.149 23.5916C193.149 23.4836 193.191 23.3801 193.266 23.3038C193.341 23.2275 193.442 23.1846 193.547 23.1846H195.934C196.04 23.1846 196.141 23.2275 196.216 23.3038C196.29 23.3801 196.332 23.4836 196.332 23.5916C196.332 23.6995 196.29 23.803 196.216 23.8793C196.141 23.9557 196.04 23.9986 195.934 23.9986Z" fill="#EDDEA3"/>
<path d="M188.939 23.9986H184.3C184.195 23.9986 184.094 23.9557 184.019 23.8793C183.944 23.803 183.902 23.6995 183.902 23.5916C183.902 23.4836 183.944 23.3801 184.019 23.3038C184.094 23.2275 184.195 23.1846 184.3 23.1846H188.939C189.045 23.1846 189.146 23.2275 189.221 23.3038C189.295 23.3801 189.337 23.4836 189.337 23.5916C189.335 23.6988 189.293 23.8012 189.218 23.877C189.144 23.9529 189.044 23.9965 188.939 23.9986Z" fill="#EDDEA3"/>
<path d="M179.638 23.9986H174.998C174.893 23.9986 174.792 23.9557 174.717 23.8793C174.643 23.803 174.601 23.6995 174.601 23.5916C174.601 23.4836 174.643 23.3801 174.717 23.3038C174.792 23.2275 174.893 23.1846 174.998 23.1846H179.638C179.743 23.1846 179.844 23.2275 179.919 23.3038C179.993 23.3801 180.035 23.4836 180.035 23.5916C180.033 23.6988 179.991 23.8012 179.917 23.877C179.842 23.9529 179.742 23.9965 179.638 23.9986Z" fill="#EDDEA3"/>
<path d="M170.359 23.9986H165.72C165.615 23.9965 165.515 23.9529 165.441 23.877C165.367 23.8012 165.324 23.6988 165.322 23.5916C165.322 23.4836 165.364 23.3801 165.439 23.3038C165.513 23.2275 165.615 23.1846 165.72 23.1846H170.359C170.465 23.1846 170.566 23.2275 170.641 23.3038C170.715 23.3801 170.757 23.4836 170.757 23.5916C170.757 23.6995 170.715 23.803 170.641 23.8793C170.566 23.9557 170.465 23.9986 170.359 23.9986Z" fill="#EDDEA3"/>
<path d="M161.09 23.9986H156.458C156.353 23.9986 156.252 23.9557 156.177 23.8793C156.102 23.803 156.061 23.6995 156.061 23.5916C156.061 23.4836 156.102 23.3801 156.177 23.3038C156.252 23.2275 156.353 23.1846 156.458 23.1846H161.09C161.195 23.1846 161.296 23.2275 161.371 23.3038C161.445 23.3801 161.487 23.4836 161.487 23.5916C161.487 23.6995 161.445 23.803 161.371 23.8793C161.296 23.9557 161.195 23.9986 161.09 23.9986Z" fill="#EDDEA3"/>
<path d="M131.17 23.9986H126.531C126.426 23.9965 126.326 23.9529 126.252 23.877C126.177 23.8012 126.135 23.6988 126.133 23.5916C126.133 23.4836 126.175 23.3801 126.249 23.3038C126.324 23.2275 126.425 23.1846 126.531 23.1846H131.17C131.275 23.1846 131.376 23.2275 131.451 23.3038C131.526 23.3801 131.568 23.4836 131.568 23.5916C131.568 23.6995 131.526 23.803 131.451 23.8793C131.376 23.9557 131.275 23.9986 131.17 23.9986Z" fill="#EDDEA3"/>
<path d="M121.892 23.9986H117.253C117.148 23.9965 117.048 23.9529 116.974 23.877C116.9 23.8012 116.858 23.6988 116.855 23.5916C116.855 23.4836 116.897 23.3801 116.972 23.3038C117.047 23.2275 117.148 23.1846 117.253 23.1846H121.892C121.998 23.1846 122.099 23.2275 122.174 23.3038C122.248 23.3801 122.29 23.4836 122.29 23.5916C122.29 23.6995 122.248 23.803 122.174 23.8793C122.099 23.9557 121.998 23.9986 121.892 23.9986Z" fill="#EDDEA3"/>
<path d="M112.622 23.9986H107.983C107.877 23.9986 107.776 23.9557 107.701 23.8793C107.627 23.803 107.585 23.6995 107.585 23.5916C107.585 23.4836 107.627 23.3801 107.701 23.3038C107.776 23.2275 107.877 23.1846 107.983 23.1846H112.622C112.727 23.1846 112.829 23.2275 112.903 23.3038C112.978 23.3801 113.02 23.4836 113.02 23.5916C113.018 23.6988 112.975 23.8012 112.901 23.877C112.827 23.9529 112.727 23.9965 112.622 23.9986Z" fill="#EDDEA3"/>
<path d="M103.344 23.9986H98.7045C98.599 23.9986 98.4978 23.9557 98.4232 23.8793C98.3486 23.803 98.3066 23.6995 98.3066 23.5916C98.3066 23.4836 98.3486 23.3801 98.4232 23.3038C98.4978 23.2275 98.599 23.1846 98.7045 23.1846H103.344C103.449 23.1846 103.55 23.2275 103.625 23.3038C103.7 23.3801 103.741 23.4836 103.741 23.5916C103.741 23.6995 103.7 23.803 103.625 23.8793C103.55 23.9557 103.449 23.9986 103.344 23.9986Z" fill="#EDDEA3"/>
<path d="M94.0653 23.9986H91.6781C91.5733 23.9965 91.4732 23.9529 91.399 23.877C91.3248 23.8012 91.2823 23.6988 91.2803 23.5916C91.2803 23.4836 91.3222 23.3801 91.3968 23.3038C91.4714 23.2275 91.5726 23.1846 91.6781 23.1846H94.0653C94.1708 23.1846 94.272 23.2275 94.3466 23.3038C94.4212 23.3801 94.4632 23.4836 94.4632 23.5916C94.4632 23.6995 94.4212 23.803 94.3466 23.8793C94.272 23.9557 94.1708 23.9986 94.0653 23.9986Z" fill="#EDDEA3"/>
<path d="M154.374 30.706V18.2032L144.921 9.57502C144.921 9.57502 144.96 9.52617 144.984 9.51803C144.997 9.48294 145.019 9.45204 145.048 9.42851C145.131 9.31105 145.198 9.18229 145.247 9.04593C145.25 9.02164 145.25 8.99698 145.247 8.97268C145.301 8.81846 145.331 8.65629 145.334 8.49243C145.335 8.13319 145.215 7.78453 144.995 7.50459C144.775 7.22465 144.468 7.03031 144.125 6.95399V6.84817C144.125 6.09931 144.125 5.35046 144.069 4.59345C144.013 3.83645 143.997 3.07944 143.958 2.32244C143.918 1.56544 143.862 0.816573 143.783 0.0595703C143.703 0.816573 143.647 1.56544 143.608 2.32244C143.568 3.07944 143.528 3.83645 143.504 4.59345C143.48 5.35046 143.456 6.09931 143.441 6.84817V6.95399C143.097 7.02891 142.789 7.22287 142.568 7.50312C142.348 7.78338 142.229 8.1328 142.231 8.49243C142.227 8.65703 142.257 8.82066 142.319 8.97268C142.319 8.97268 142.319 9.02151 142.319 9.04593C142.378 9.18163 142.453 9.30997 142.541 9.42851C142.554 9.46175 142.573 9.49214 142.597 9.51803C142.619 9.53097 142.636 9.55105 142.645 9.57502L133.239 18.2032V30.706H127.812L129.619 37.1364V39.5784H157.986V37.1364L159.809 30.6978L154.374 30.706ZM135.523 20.1242C136.454 19.9126 137.409 19.7254 138.364 19.587C139.12 19.473 139.884 19.3916 140.655 19.3184C141.706 19.2288 142.756 19.18 143.838 19.1881C144.921 19.1963 145.931 19.2288 147.021 19.3184C147.817 19.3916 148.549 19.473 149.305 19.587C150.268 19.7254 151.215 19.9126 152.154 20.1242V26.8884H135.587L135.523 20.1242Z" fill="#07181F"/>
<path d="M135.522 20.1162C136.453 19.9045 137.408 19.7173 138.363 19.5789C139.119 19.465 139.883 19.3836 140.655 19.3103C141.705 19.2208 142.756 19.1719 143.838 19.1801C144.92 19.1882 145.931 19.2208 147.021 19.3103C147.816 19.3836 148.548 19.465 149.304 19.5789C150.267 19.7173 151.214 19.9045 152.153 20.1162V26.8803H135.586L135.522 20.1162Z" fill="#EDDEA3"/>
<defs>
<clipPath id="clip0_10_347">
<rect width="278" height="12.869" fill="white" transform="translate(0 104.131)"/>
</clipPath>
</defs>
</svg>
