<svg width="32" height="32" viewBox="0 0 32 32" fill="none" xmlns="http://www.w3.org/2000/svg">
<rect x="0.5" y="0.5" width="31" height="31" rx="3.5" fill="black"/>
<rect x="0.5" y="0.5" width="31" height="31" rx="3.5" stroke="white"/>
<g clip-path="url(#clip0_161_551)">
<path d="M20.9853 34.5372H17.5004V24.4545L14.3876 25.9007V34.5488H10.9323L11.6115 14.6206H14.3876V22.3431L17.5004 22.0539V14.6177H20.3031L20.9853 34.5372Z" fill="white"/>
<path d="M20.3533 24.0876L11.5583 26.7167L11.7267 22.089L12.1667 21.9559L19.8453 19.6594L20.2824 19.5264C20.3031 21.4932 20.3533 24.0876 20.3533 24.0876Z" fill="white"/>
<path d="M25.2558 13.9477H25.2174L24.3639 13.725C24.3257 13.7148 24.2931 13.6903 24.2732 13.6567C24.2533 13.6231 24.2477 13.5832 24.2576 13.5457C24.268 13.5088 24.2926 13.4774 24.3262 13.458C24.3598 13.4385 24.3998 13.4327 24.4378 13.4415L25.2913 13.6671C25.3101 13.6719 25.3278 13.6802 25.3433 13.6916C25.3589 13.703 25.372 13.7173 25.3818 13.7337C25.3917 13.7501 25.3982 13.7683 25.4009 13.7871C25.4036 13.806 25.4025 13.8252 25.3976 13.8436C25.3886 13.8736 25.37 13.9 25.3444 13.9188C25.3189 13.9375 25.2878 13.9477 25.2558 13.9477Z" fill="white"/>
<path d="M22.524 13.2303H22.4856L20.6102 12.7386C20.5914 12.7339 20.5737 12.7256 20.5582 12.7142C20.5426 12.7028 20.5295 12.6884 20.5197 12.672C20.5098 12.6557 20.5033 12.6375 20.5006 12.6187C20.4979 12.5998 20.499 12.5806 20.5039 12.5622C20.5087 12.5438 20.5172 12.5264 20.5289 12.5112C20.5406 12.496 20.5552 12.4832 20.5719 12.4735C20.5887 12.4638 20.6072 12.4575 20.6264 12.4549C20.6457 12.4522 20.6652 12.4533 20.6841 12.4581L22.5624 12.9527C22.5811 12.9574 22.5988 12.9657 22.6142 12.9772C22.6296 12.9886 22.6425 13.003 22.6522 13.0195C22.6618 13.0359 22.668 13.0541 22.6703 13.0729C22.6726 13.0918 22.6711 13.1109 22.6657 13.1291C22.6563 13.1586 22.6374 13.1844 22.6119 13.2026C22.5864 13.2208 22.5556 13.2305 22.524 13.2303ZM11.263 10.2744C11.2504 10.2774 11.2372 10.2774 11.2246 10.2744L9.3463 9.78268C9.32753 9.77799 9.30989 9.76967 9.29447 9.75819C9.27905 9.74672 9.26613 9.73232 9.25649 9.71587C9.24685 9.69942 9.24069 9.68124 9.23836 9.66241C9.23603 9.64357 9.23758 9.62447 9.24292 9.60624C9.2477 9.58786 9.2562 9.57061 9.26792 9.55551C9.27964 9.5404 9.29433 9.52775 9.31113 9.51831C9.32793 9.50887 9.3465 9.50283 9.36573 9.50054C9.38496 9.49826 9.40445 9.49978 9.42307 9.50502L11.3014 9.99671C11.3389 10.0069 11.3707 10.0311 11.3901 10.0641C11.4094 10.0972 11.4147 10.1363 11.4047 10.1731C11.3953 10.2026 11.3764 10.2284 11.3509 10.2466C11.3254 10.2648 11.2946 10.2746 11.263 10.2744Z" fill="white"/>
<path d="M7.50933 9.29089H7.47094L6.61449 9.06528C6.59566 9.06057 6.57797 9.05225 6.56243 9.04083C6.54689 9.0294 6.5338 9.01508 6.52393 8.99869C6.51405 8.9823 6.50756 8.96416 6.50485 8.94531C6.50215 8.92646 6.50327 8.90728 6.50815 8.88886C6.51917 8.85193 6.54448 8.82068 6.57869 8.80177C6.61289 8.78286 6.65328 8.77778 6.69126 8.78762L7.54477 9.01033C7.5636 9.01505 7.58129 9.02336 7.59683 9.03479C7.61237 9.04622 7.62545 9.06054 7.63533 9.07693C7.64521 9.09332 7.65168 9.11146 7.65438 9.13031C7.65709 9.14916 7.65597 9.16834 7.65108 9.18677C7.64214 9.21681 7.62349 9.24319 7.59793 9.26196C7.57237 9.28074 7.54128 9.29089 7.50933 9.29089Z" fill="white"/>
<path d="M6.65288 13.9475C6.62016 13.9474 6.58834 13.937 6.56223 13.9177C6.53612 13.8984 6.51713 13.8713 6.50815 13.8405C6.50327 13.822 6.50215 13.8028 6.50485 13.784C6.50756 13.7652 6.51405 13.747 6.52393 13.7306C6.5338 13.7142 6.54689 13.6999 6.56243 13.6885C6.57797 13.6771 6.59566 13.6687 6.61449 13.664L7.47094 13.4384C7.50853 13.4287 7.54853 13.4338 7.58226 13.4528C7.61599 13.4717 7.64072 13.5029 7.65108 13.5397C7.66102 13.5772 7.65543 13.6171 7.63553 13.6507C7.61563 13.6843 7.58302 13.7088 7.54477 13.719L6.69126 13.9417L6.65288 13.9475Z" fill="white"/>
<path d="M9.37588 13.2303C9.34355 13.2301 9.31217 13.2195 9.28657 13.2002C9.26096 13.1809 9.24254 13.1538 9.23413 13.1232C9.22879 13.105 9.22724 13.0859 9.22957 13.0671C9.2319 13.0482 9.23806 13.0301 9.2477 13.0136C9.25734 12.9972 9.27026 12.9828 9.28568 12.9713C9.30111 12.9598 9.31872 12.9515 9.33749 12.9468L11.2158 12.4522C11.2346 12.4474 11.2542 12.4463 11.2734 12.449C11.2927 12.4516 11.3112 12.458 11.3279 12.4677C11.3447 12.4773 11.3593 12.4901 11.371 12.5054C11.3826 12.5206 11.3911 12.5379 11.396 12.5564C11.4059 12.5932 11.4006 12.6323 11.3813 12.6654C11.3619 12.6984 11.3301 12.7226 11.2926 12.7328L9.41428 13.2245L9.37588 13.2303ZM20.6369 10.2743C20.6045 10.2741 20.5732 10.2636 20.5476 10.2442C20.5219 10.2249 20.5035 10.1979 20.4951 10.1673C20.4902 10.1489 20.4891 10.1297 20.4918 10.1108C20.4945 10.092 20.501 10.0738 20.5109 10.0574C20.5208 10.0411 20.5338 10.0267 20.5494 10.0153C20.5649 10.0039 20.5826 9.99557 20.6014 9.99085L22.4768 9.49915C22.4954 9.49392 22.5149 9.4924 22.5341 9.49468C22.5534 9.49697 22.5719 9.50301 22.5887 9.51245C22.6055 9.52189 22.6202 9.53453 22.6319 9.54964C22.6436 9.56474 22.6521 9.582 22.6569 9.60038C22.6623 9.61862 22.6638 9.63772 22.6615 9.65655C22.6592 9.67538 22.653 9.69356 22.6434 9.71001C22.6337 9.72646 22.6208 9.74085 22.6054 9.75233C22.59 9.7638 22.5723 9.77213 22.5536 9.77681L20.6753 10.2685C20.6659 10.2723 20.6559 10.2742 20.6457 10.2743H20.6369Z" fill="white"/>
<path d="M24.4023 9.29074C24.369 9.29104 24.3367 9.28036 24.3104 9.26041C24.2841 9.24047 24.2655 9.21243 24.2575 9.18083C24.2527 9.16241 24.2515 9.14322 24.2542 9.12437C24.2569 9.10553 24.2634 9.08739 24.2733 9.071C24.2832 9.05461 24.2963 9.04029 24.3118 9.02886C24.3273 9.01743 24.345 9.00912 24.3639 9.0044L25.2174 8.7817C25.2362 8.77601 25.256 8.77414 25.2755 8.77621C25.2951 8.77827 25.314 8.78422 25.3312 8.7937C25.3483 8.80318 25.3633 8.81598 25.3752 8.83132C25.3871 8.84666 25.3957 8.86421 25.4005 8.88292C25.4054 8.90134 25.4065 8.92053 25.4038 8.93938C25.4011 8.95822 25.3946 8.97637 25.3847 8.99276C25.3748 9.00915 25.3618 9.02347 25.3462 9.0349C25.3307 9.04633 25.313 9.05464 25.2942 9.05936L24.4406 9.28496L24.4023 9.29074Z" fill="white"/>
<path d="M29.2546 11.5065H27.5328C27.4936 11.5065 27.4561 11.4913 27.4284 11.4642C27.4007 11.437 27.3851 11.4003 27.3851 11.3619C27.3851 11.3235 27.4007 11.2868 27.4284 11.2596C27.4561 11.2325 27.4936 11.2173 27.5328 11.2173H29.2546C29.2937 11.2173 29.3313 11.2325 29.359 11.2596C29.3867 11.2868 29.4023 11.3235 29.4023 11.3619C29.4015 11.4 29.3857 11.4364 29.3582 11.4633C29.3306 11.4903 29.2935 11.5058 29.2546 11.5065Z" fill="white"/>
<path d="M25.8111 11.5065H24.0893C24.0504 11.5058 24.0133 11.4903 23.9857 11.4633C23.9582 11.4364 23.9424 11.4 23.9417 11.3619C23.9417 11.3235 23.9572 11.2868 23.9849 11.2596C24.0126 11.2325 24.0502 11.2173 24.0893 11.2173H25.8111C25.8503 11.2173 25.8878 11.2325 25.9155 11.2596C25.9432 11.2868 25.9588 11.3235 25.9588 11.3619C25.9588 11.4003 25.9432 11.437 25.9155 11.4642C25.8878 11.4913 25.8503 11.5065 25.8111 11.5065Z" fill="white"/>
<path d="M22.3704 11.5065H20.6516C20.6124 11.5065 20.5749 11.4913 20.5472 11.4642C20.5195 11.437 20.5039 11.4003 20.5039 11.3619C20.5039 11.3235 20.5195 11.2868 20.5472 11.2596C20.5749 11.2325 20.6124 11.2173 20.6516 11.2173H22.3704C22.4096 11.2173 22.4471 11.2325 22.4748 11.2596C22.5025 11.2868 22.5181 11.3235 22.5181 11.3619C22.5181 11.4003 22.5025 11.437 22.4748 11.4642C22.4471 11.4913 22.4096 11.5065 22.3704 11.5065Z" fill="white"/>
<path d="M11.2659 11.5065H9.54415C9.50522 11.5058 9.46811 11.4903 9.44057 11.4633C9.41304 11.4364 9.39724 11.4 9.39648 11.3619C9.39648 11.3235 9.41204 11.2868 9.43973 11.2596C9.46742 11.2325 9.50499 11.2173 9.54415 11.2173H11.2659C11.3051 11.2173 11.3426 11.2325 11.3703 11.2596C11.398 11.2868 11.4136 11.3235 11.4136 11.3619C11.4136 11.4003 11.398 11.437 11.3703 11.4642C11.3426 11.4913 11.3051 11.5065 11.2659 11.5065Z" fill="white"/>
<path d="M7.82246 11.5065H6.10067C6.06174 11.5058 6.02462 11.4903 5.99709 11.4633C5.96956 11.4364 5.95376 11.4 5.953 11.3619C5.953 11.3235 5.96857 11.2868 5.99626 11.2596C6.02396 11.2325 6.06151 11.2173 6.10067 11.2173H7.82246C7.86162 11.2173 7.89919 11.2325 7.92688 11.2596C7.95457 11.2868 7.97012 11.3235 7.97012 11.3619C7.97012 11.4003 7.95457 11.437 7.92688 11.4642C7.89919 11.4913 7.86162 11.5065 7.82246 11.5065Z" fill="white"/>
<path d="M4.38178 11.5065H2.65999C2.62083 11.5065 2.58327 11.4913 2.55557 11.4642C2.52788 11.437 2.51233 11.4003 2.51233 11.3619C2.51233 11.3235 2.52788 11.2868 2.55557 11.2596C2.58327 11.2325 2.62083 11.2173 2.65999 11.2173H4.38178C4.42095 11.2173 4.45849 11.2325 4.48619 11.2596C4.51388 11.2868 4.52945 11.3235 4.52945 11.3619C4.52869 11.4 4.51289 11.4364 4.48536 11.4633C4.45783 11.4903 4.42071 11.5058 4.38178 11.5065Z" fill="white"/>
<path d="M19.8778 13.8896V9.44702L16.3693 6.38114C16.3693 6.38114 16.3841 6.36378 16.3929 6.36089C16.3978 6.34842 16.4059 6.33744 16.4165 6.32908C16.4475 6.28734 16.4723 6.24159 16.4904 6.19314C16.4916 6.18451 16.4916 6.17574 16.4904 6.16711C16.5105 6.11231 16.5215 6.05469 16.5229 5.99646C16.5231 5.86881 16.4787 5.74492 16.397 5.64545C16.3154 5.54598 16.2013 5.47693 16.0739 5.44981V5.41221C16.0739 5.14611 16.0739 4.88002 16.0533 4.61103C16.0326 4.34205 16.0267 4.07306 16.0119 3.80407C15.9972 3.53508 15.9765 3.26899 15.947 3C15.9174 3.26899 15.8968 3.53508 15.882 3.80407C15.8672 4.07306 15.8525 4.34205 15.8436 4.61103C15.8347 4.88002 15.8259 5.14611 15.82 5.41221V5.44981C15.6923 5.47643 15.578 5.54535 15.4962 5.64493C15.4145 5.74451 15.3702 5.86867 15.3711 5.99646C15.3695 6.05495 15.3806 6.11309 15.4035 6.16711C15.4035 6.16711 15.4035 6.18446 15.4035 6.19314C15.4258 6.24136 15.4535 6.28696 15.4862 6.32908C15.491 6.34089 15.498 6.35169 15.5069 6.36089C15.515 6.36549 15.5212 6.37263 15.5246 6.38114L12.0338 9.44702V13.8896H10.0197L10.6901 16.1746V17.0423H21.2186V16.1746L21.8949 13.8868L19.8778 13.8896ZM12.8814 10.1296C13.227 10.0544 13.5814 9.98789 13.9358 9.93872C14.2163 9.89822 14.4998 9.8693 14.7863 9.84327C15.1761 9.81145 15.566 9.79409 15.9676 9.79699C16.3693 9.79988 16.7444 9.81145 17.149 9.84327C17.4443 9.8693 17.716 9.89822 17.9966 9.93872C18.3539 9.98789 18.7054 10.0544 19.0539 10.1296V12.5331H12.905L12.8814 10.1296Z" fill="white"/>
<path d="M12.8815 10.1269C13.227 10.0517 13.5814 9.98515 13.9358 9.93598C14.2164 9.89549 14.4999 9.86656 14.7864 9.84053C15.1762 9.80871 15.566 9.79137 15.9677 9.79426C16.3693 9.79715 16.7444 9.80871 17.149 9.84053C17.4443 9.86656 17.716 9.89549 17.9966 9.93598C18.354 9.98515 18.7054 10.0517 19.0539 10.1269V12.5304H12.9051L12.8815 10.1269Z" fill="black"/>
</g>
<defs>
<clipPath id="clip0_161_551">
<rect width="28" height="28" fill="white" transform="translate(2 3)"/>
</clipPath>
</defs>
</svg>
