<svg width="28" height="28" viewBox="0 0 28 28" fill="none" xmlns="http://www.w3.org/2000/svg">
<g clip-path="url(#clip0_161_552)">
<path d="M18.9853 31.5372H15.5004V21.4545L12.3876 22.9007V31.5488H8.93225L9.61151 11.6206H12.3876V19.3431L15.5004 19.0539V11.6177H18.3031L18.9853 31.5372Z" fill="black"/>
<path d="M18.3533 21.0876L9.55835 23.7167L9.72669 19.089L10.1667 18.9559L17.8453 16.6594L18.2824 16.5264C18.3031 18.4932 18.3533 21.0876 18.3533 21.0876Z" fill="black"/>
<path d="M23.2558 10.9477H23.2174L22.3639 10.725C22.3257 10.7148 22.2931 10.6903 22.2732 10.6567C22.2533 10.6231 22.2477 10.5832 22.2576 10.5457C22.268 10.5088 22.2926 10.4774 22.3262 10.458C22.3598 10.4385 22.3998 10.4327 22.4378 10.4415L23.2913 10.6671C23.3101 10.6719 23.3278 10.6802 23.3433 10.6916C23.3589 10.703 23.372 10.7173 23.3818 10.7337C23.3917 10.7501 23.3982 10.7683 23.4009 10.7871C23.4036 10.806 23.4025 10.8252 23.3976 10.8436C23.3886 10.8736 23.37 10.9 23.3444 10.9188C23.3189 10.9375 23.2878 10.9477 23.2558 10.9477Z" fill="black"/>
<path d="M20.524 10.2303H20.4856L18.6102 9.73864C18.5914 9.73393 18.5737 9.72561 18.5582 9.71419C18.5426 9.70276 18.5295 9.68844 18.5197 9.67205C18.5098 9.65566 18.5033 9.63751 18.5006 9.61866C18.4979 9.59982 18.499 9.58063 18.5039 9.56221C18.5087 9.54377 18.5172 9.52644 18.5289 9.51122C18.5406 9.496 18.5552 9.48319 18.5719 9.47352C18.5887 9.46384 18.6072 9.45751 18.6264 9.45486C18.6457 9.45221 18.6652 9.45331 18.6841 9.45809L20.5624 9.95267C20.5811 9.95736 20.5988 9.96568 20.6142 9.97716C20.6296 9.98863 20.6425 10.003 20.6522 10.0195C20.6618 10.0359 20.668 10.0541 20.6703 10.0729C20.6726 10.0918 20.6711 10.1109 20.6657 10.1291C20.6563 10.1586 20.6374 10.1844 20.6119 10.2026C20.5864 10.2208 20.5556 10.2305 20.524 10.2303ZM9.26299 7.27437C9.25039 7.27743 9.23721 7.27743 9.2246 7.27437L7.3463 6.78268C7.32753 6.77799 7.30989 6.76967 7.29447 6.75819C7.27905 6.74672 7.26613 6.73232 7.25649 6.71587C7.24685 6.69942 7.24069 6.68124 7.23836 6.66241C7.23603 6.64357 7.23758 6.62447 7.24292 6.60624C7.2477 6.58786 7.2562 6.57061 7.26792 6.55551C7.27964 6.5404 7.29433 6.52775 7.31113 6.51831C7.32793 6.50887 7.3465 6.50283 7.36573 6.50054C7.38496 6.49826 7.40445 6.49978 7.42307 6.50502L9.30139 6.99671C9.33887 7.00686 9.37074 7.03108 9.39009 7.06412C9.40944 7.09715 9.41471 7.13633 9.40475 7.17315C9.39527 7.20265 9.3764 7.22839 9.35089 7.24661C9.32537 7.26483 9.29457 7.27456 9.26299 7.27437Z" fill="black"/>
<path d="M5.50933 6.29089H5.47094L4.61449 6.06528C4.59566 6.06057 4.57797 6.05225 4.56243 6.04083C4.54689 6.0294 4.5338 6.01508 4.52393 5.99869C4.51405 5.9823 4.50756 5.96416 4.50485 5.94531C4.50215 5.92646 4.50327 5.90728 4.50815 5.88886C4.51917 5.85193 4.54448 5.82068 4.57869 5.80177C4.61289 5.78286 4.65328 5.77778 4.69126 5.78762L5.54477 6.01033C5.5636 6.01505 5.58129 6.02336 5.59683 6.03479C5.61237 6.04622 5.62545 6.06054 5.63533 6.07693C5.64521 6.09332 5.65168 6.11146 5.65438 6.13031C5.65709 6.14916 5.65597 6.16834 5.65108 6.18677C5.64214 6.21681 5.62349 6.24319 5.59793 6.26196C5.57237 6.28074 5.54128 6.29089 5.50933 6.29089Z" fill="black"/>
<path d="M4.65288 10.9475C4.62016 10.9474 4.58834 10.937 4.56223 10.9177C4.53612 10.8984 4.51713 10.8713 4.50815 10.8405C4.50327 10.822 4.50215 10.8028 4.50485 10.784C4.50756 10.7652 4.51405 10.747 4.52393 10.7306C4.5338 10.7142 4.54689 10.6999 4.56243 10.6885C4.57797 10.6771 4.59566 10.6687 4.61449 10.664L5.47094 10.4384C5.50853 10.4287 5.54853 10.4338 5.58226 10.4528C5.61599 10.4717 5.64072 10.5029 5.65108 10.5397C5.66102 10.5772 5.65543 10.6171 5.63553 10.6507C5.61563 10.6843 5.58302 10.7088 5.54477 10.719L4.69126 10.9417L4.65288 10.9475Z" fill="black"/>
<path d="M7.37588 10.2303C7.34355 10.2301 7.31217 10.2195 7.28657 10.2002C7.26096 10.1809 7.24254 10.1538 7.23413 10.1232C7.22879 10.105 7.22724 10.0859 7.22957 10.0671C7.2319 10.0482 7.23806 10.0301 7.2477 10.0136C7.25734 9.99716 7.27026 9.98278 7.28568 9.9713C7.30111 9.95983 7.31872 9.9515 7.33749 9.94682L9.21579 9.45222C9.2346 9.44744 9.25419 9.44634 9.27344 9.44899C9.29268 9.45164 9.31121 9.45799 9.32795 9.46766C9.34468 9.47733 9.3593 9.49015 9.37097 9.50537C9.38264 9.52059 9.39114 9.53791 9.39596 9.55635C9.40592 9.59316 9.40064 9.63234 9.38128 9.66537C9.36193 9.6984 9.33006 9.72262 9.29258 9.73278L7.41428 10.2245L7.37588 10.2303ZM18.6369 7.27429C18.6045 7.27412 18.5732 7.26355 18.5476 7.24422C18.5219 7.22489 18.5035 7.19786 18.4951 7.16728C18.4902 7.14886 18.4891 7.12967 18.4918 7.11082C18.4945 7.09198 18.501 7.07384 18.5109 7.05745C18.5208 7.04106 18.5338 7.02674 18.5494 7.01531C18.5649 7.00388 18.5826 6.99557 18.6014 6.99085L20.4768 6.49915C20.4954 6.49392 20.5149 6.4924 20.5341 6.49468C20.5534 6.49697 20.5719 6.50301 20.5887 6.51245C20.6055 6.52189 20.6202 6.53453 20.6319 6.54964C20.6436 6.56474 20.6521 6.582 20.6569 6.60038C20.6623 6.61862 20.6638 6.63772 20.6615 6.65655C20.6592 6.67538 20.653 6.69356 20.6434 6.71001C20.6337 6.72646 20.6208 6.74085 20.6054 6.75233C20.59 6.7638 20.5723 6.77213 20.5536 6.77681L18.6753 7.26851C18.6659 7.27226 18.6559 7.27422 18.6457 7.27429H18.6369Z" fill="black"/>
<path d="M22.4023 6.29074C22.369 6.29104 22.3367 6.28036 22.3104 6.26041C22.2841 6.24047 22.2655 6.21243 22.2575 6.18083C22.2527 6.16241 22.2515 6.14322 22.2542 6.12437C22.2569 6.10553 22.2634 6.08739 22.2733 6.071C22.2832 6.05461 22.2963 6.04029 22.3118 6.02886C22.3273 6.01743 22.345 6.00912 22.3639 6.0044L23.2174 5.7817C23.2362 5.77601 23.256 5.77414 23.2755 5.77621C23.2951 5.77827 23.314 5.78422 23.3312 5.7937C23.3483 5.80318 23.3633 5.81598 23.3752 5.83132C23.3871 5.84666 23.3957 5.86421 23.4005 5.88292C23.4054 5.90134 23.4065 5.92053 23.4038 5.93938C23.4011 5.95822 23.3946 5.97637 23.3847 5.99276C23.3748 6.00915 23.3618 6.02347 23.3462 6.0349C23.3307 6.04633 23.313 6.05464 23.2942 6.05936L22.4406 6.28496L22.4023 6.29074Z" fill="black"/>
<path d="M27.2546 8.50652H25.5328C25.4936 8.50652 25.4561 8.49128 25.4284 8.46416C25.4007 8.43704 25.3851 8.40026 25.3851 8.3619C25.3851 8.32355 25.4007 8.28677 25.4284 8.25964C25.4561 8.23252 25.4936 8.21729 25.5328 8.21729H27.2546C27.2937 8.21729 27.3313 8.23252 27.359 8.25964C27.3867 8.28677 27.4023 8.32355 27.4023 8.3619C27.4015 8.40002 27.3857 8.43638 27.3582 8.46334C27.3306 8.4903 27.2935 8.50578 27.2546 8.50652Z" fill="black"/>
<path d="M23.8111 8.50652H22.0893C22.0504 8.50578 22.0133 8.4903 21.9857 8.46334C21.9582 8.43638 21.9424 8.40002 21.9417 8.3619C21.9417 8.32355 21.9572 8.28677 21.9849 8.25964C22.0126 8.23252 22.0502 8.21729 22.0893 8.21729H23.8111C23.8503 8.21729 23.8878 8.23252 23.9155 8.25964C23.9432 8.28677 23.9588 8.32355 23.9588 8.3619C23.9588 8.40026 23.9432 8.43704 23.9155 8.46416C23.8878 8.49128 23.8503 8.50652 23.8111 8.50652Z" fill="black"/>
<path d="M20.3704 8.50652H18.6516C18.6124 8.50652 18.5749 8.49128 18.5472 8.46416C18.5195 8.43704 18.5039 8.40026 18.5039 8.3619C18.5039 8.32355 18.5195 8.28677 18.5472 8.25964C18.5749 8.23252 18.6124 8.21729 18.6516 8.21729H20.3704C20.4096 8.21729 20.4471 8.23252 20.4748 8.25964C20.5025 8.28677 20.5181 8.32355 20.5181 8.3619C20.5181 8.40026 20.5025 8.43704 20.4748 8.46416C20.4471 8.49128 20.4096 8.50652 20.3704 8.50652Z" fill="black"/>
<path d="M9.26594 8.50652H7.54415C7.50522 8.50578 7.46811 8.4903 7.44057 8.46334C7.41304 8.43638 7.39724 8.40002 7.39648 8.3619C7.39648 8.32355 7.41204 8.28677 7.43973 8.25964C7.46742 8.23252 7.50499 8.21729 7.54415 8.21729H9.26594C9.3051 8.21729 9.34265 8.23252 9.37034 8.25964C9.39803 8.28677 9.4136 8.32355 9.4136 8.3619C9.4136 8.40026 9.39803 8.43704 9.37034 8.46416C9.34265 8.49128 9.3051 8.50652 9.26594 8.50652Z" fill="black"/>
<path d="M5.82246 8.50652H4.10067C4.06174 8.50578 4.02462 8.4903 3.99709 8.46334C3.96956 8.43638 3.95376 8.40002 3.953 8.3619C3.953 8.32355 3.96857 8.28677 3.99626 8.25964C4.02396 8.23252 4.06151 8.21729 4.10067 8.21729H5.82246C5.86162 8.21729 5.89919 8.23252 5.92688 8.25964C5.95457 8.28677 5.97012 8.32355 5.97012 8.3619C5.97012 8.40026 5.95457 8.43704 5.92688 8.46416C5.89919 8.49128 5.86162 8.50652 5.82246 8.50652Z" fill="black"/>
<path d="M2.38178 8.50652H0.659995C0.620831 8.50652 0.583265 8.49128 0.555573 8.46416C0.52788 8.43704 0.512329 8.40026 0.512329 8.3619C0.512329 8.32355 0.52788 8.28677 0.555573 8.25964C0.583265 8.23252 0.620831 8.21729 0.659995 8.21729H2.38178C2.42095 8.21729 2.45849 8.23252 2.48619 8.25964C2.51388 8.28677 2.52945 8.32355 2.52945 8.3619C2.52869 8.40002 2.51289 8.43638 2.48536 8.46334C2.45783 8.4903 2.42071 8.50578 2.38178 8.50652Z" fill="black"/>
<path d="M17.8778 10.8896V6.44702L14.3693 3.38114C14.3693 3.38114 14.3841 3.36378 14.3929 3.36089C14.3978 3.34842 14.4059 3.33744 14.4165 3.32908C14.4475 3.28734 14.4723 3.24159 14.4904 3.19314C14.4916 3.18451 14.4916 3.17574 14.4904 3.16711C14.5105 3.11231 14.5215 3.05469 14.5229 2.99646C14.5231 2.86881 14.4787 2.74492 14.397 2.64545C14.3154 2.54598 14.2013 2.47693 14.0739 2.44981V2.41221C14.0739 2.14611 14.0739 1.88002 14.0533 1.61103C14.0326 1.34205 14.0267 1.07306 14.0119 0.804069C13.9972 0.535082 13.9765 0.268987 13.947 0C13.9174 0.268987 13.8968 0.535082 13.882 0.804069C13.8672 1.07306 13.8525 1.34205 13.8436 1.61103C13.8347 1.88002 13.8259 2.14611 13.82 2.41221V2.44981C13.6923 2.47643 13.578 2.54535 13.4962 2.64493C13.4145 2.74451 13.3702 2.86867 13.3711 2.99646C13.3695 3.05495 13.3806 3.11309 13.4035 3.16711C13.4035 3.16711 13.4035 3.18446 13.4035 3.19314C13.4258 3.24136 13.4535 3.28696 13.4862 3.32908C13.491 3.34089 13.498 3.35169 13.5069 3.36089C13.515 3.36549 13.5212 3.37263 13.5246 3.38114L10.0338 6.44702V10.8896H8.01965L8.69006 13.1746V14.0423H19.2186V13.1746L19.8949 10.8868L17.8778 10.8896ZM10.8814 7.1296C11.227 7.0544 11.5814 6.98789 11.9358 6.93872C12.2163 6.89822 12.4998 6.8693 12.7863 6.84327C13.1761 6.81145 13.566 6.79409 13.9676 6.79699C14.3693 6.79988 14.7444 6.81145 15.149 6.84327C15.4443 6.8693 15.716 6.89822 15.9966 6.93872C16.3539 6.98789 16.7054 7.0544 17.0539 7.1296V9.53313H10.905L10.8814 7.1296Z" fill="black"/>
</g>
<defs>
<clipPath id="clip0_161_552">
<rect width="28" height="28" fill="white"/>
</clipPath>
</defs>
</svg>
