<svg width="157" height="267" viewBox="0 0 157 267" fill="none" xmlns="http://www.w3.org/2000/svg">
<g clip-path="url(#clip0_1_90)">
<path d="M117.789 265.939H90.6742V185.818L66.4547 197.31V266.031H39.5698L44.8549 107.673H66.4547V169.04L90.6742 166.741V107.65H112.481L117.789 265.939Z" fill="#707070"/>
<path d="M112.871 190.323L44.4412 211.215L45.751 174.441L49.1747 173.384L108.919 155.135L112.32 154.077C112.481 169.706 112.871 190.323 112.871 190.323Z" fill="#707070"/>
<path d="M151.016 87.4934H150.717L144.076 85.7237C143.779 85.6428 143.525 85.4479 143.37 85.1811C143.215 84.9144 143.172 84.5973 143.249 84.2987C143.33 84.006 143.521 83.7562 143.783 83.6019C144.044 83.4476 144.355 83.4007 144.651 83.4713L151.292 85.264C151.438 85.3015 151.576 85.3676 151.697 85.4584C151.818 85.5492 151.919 85.663 151.996 85.7932C152.073 85.9235 152.123 86.0677 152.144 86.2174C152.166 86.3672 152.157 86.5197 152.119 86.6661C152.049 86.9048 151.904 87.1144 151.705 87.2636C151.506 87.4128 151.264 87.4934 151.016 87.4934Z" fill="#BCBCBC"/>
<path d="M129.761 81.7934H129.462L114.871 77.8862C114.724 77.8487 114.586 77.7827 114.466 77.6919C114.345 77.6011 114.243 77.4873 114.166 77.357C114.089 77.2268 114.039 77.0826 114.018 76.9328C113.997 76.783 114.005 76.6306 114.043 76.4842C114.081 76.3377 114.147 76.2 114.238 76.0791C114.329 75.9581 114.442 75.8563 114.573 75.7794C114.703 75.7025 114.847 75.6522 114.997 75.6311C115.146 75.6101 115.299 75.6188 115.445 75.6568L130.06 79.587C130.206 79.6242 130.343 79.6904 130.463 79.7816C130.583 79.8728 130.683 79.9872 130.758 80.1179C130.833 80.2486 130.881 80.3931 130.899 80.5427C130.917 80.6924 130.905 80.8442 130.864 80.9891C130.79 81.2235 130.643 81.4281 130.445 81.5728C130.246 81.7176 130.006 81.7949 129.761 81.7934ZM42.1434 58.3041C42.0453 58.3284 41.9428 58.3284 41.8447 58.3041L27.2303 54.3969C27.0843 54.3596 26.9471 54.2935 26.8271 54.2023C26.7071 54.1111 26.6066 53.9967 26.5316 53.866C26.4566 53.7352 26.4087 53.5908 26.3905 53.4411C26.3724 53.2915 26.3844 53.1397 26.426 52.9948C26.4632 52.8487 26.5294 52.7117 26.6205 52.5916C26.7117 52.4716 26.826 52.3711 26.9567 52.2961C27.0874 52.2211 27.2319 52.173 27.3815 52.1549C27.5311 52.1367 27.6828 52.1489 27.8277 52.1904L42.4422 56.0976C42.7338 56.1783 42.9818 56.3708 43.1323 56.6333C43.2829 56.8958 43.3239 57.2071 43.2464 57.4997C43.1727 57.7341 43.0258 57.9387 42.8273 58.0835C42.6288 58.2282 42.3891 58.3055 42.1434 58.3041Z" fill="#BCBCBC"/>
<path d="M12.9375 50.4896H12.6387L5.97502 48.6969C5.82853 48.6594 5.69089 48.5934 5.56998 48.5025C5.44906 48.4117 5.34726 48.2979 5.2704 48.1677C5.19355 48.0374 5.14306 47.8933 5.12202 47.7435C5.10098 47.5938 5.1097 47.4413 5.14768 47.2949C5.2334 47.0015 5.43034 46.7532 5.69648 46.6029C5.96263 46.4526 6.27689 46.4123 6.57235 46.4905L13.2132 48.2602C13.3597 48.2977 13.4973 48.3637 13.6182 48.4546C13.7391 48.5454 13.841 48.6592 13.9178 48.7894C13.9947 48.9197 14.045 49.0639 14.0661 49.2136C14.0871 49.3634 14.0784 49.5159 14.0404 49.6622C13.9708 49.9009 13.8257 50.1106 13.6268 50.2598C13.4279 50.409 13.1861 50.4896 12.9375 50.4896Z" fill="#BCBCBC"/>
<path d="M6.27375 87.4934C6.0192 87.4932 5.77158 87.4101 5.56844 87.2567C5.36529 87.1033 5.21756 86.8879 5.14768 86.643C5.1097 86.4966 5.10098 86.3442 5.12202 86.1944C5.14306 86.0446 5.19355 85.9005 5.2704 85.7703C5.34726 85.64 5.44906 85.5262 5.56998 85.4353C5.69089 85.3445 5.82853 85.2785 5.97502 85.241L12.6387 83.4483C12.9312 83.3707 13.2425 83.4118 13.5049 83.5624C13.7673 83.713 13.9597 83.961 14.0404 84.2527C14.1177 84.5513 14.0742 84.8684 13.9194 85.1351C13.7645 85.4019 13.5108 85.5968 13.2132 85.6777L6.57235 87.4475L6.27375 87.4934Z" fill="#BCBCBC"/>
<path d="M27.4601 81.7934C27.2085 81.792 26.9644 81.7081 26.7651 81.5545C26.5659 81.4008 26.4226 81.186 26.3572 80.943C26.3156 80.7981 26.3035 80.6464 26.3217 80.4967C26.3398 80.3471 26.3878 80.2026 26.4628 80.0719C26.5378 79.9411 26.6383 79.8268 26.7583 79.7356C26.8783 79.6444 27.0153 79.5783 27.1614 79.5411L41.7757 75.6108C41.9221 75.5728 42.0745 75.5641 42.2242 75.5851C42.374 75.6062 42.5181 75.6566 42.6483 75.7335C42.7786 75.8103 42.8923 75.9122 42.9831 76.0331C43.0739 76.1541 43.14 76.2917 43.1775 76.4382C43.255 76.7308 43.2139 77.0421 43.0633 77.3046C42.9128 77.567 42.6648 77.7595 42.3732 77.8402L27.7588 81.7475L27.4601 81.7934ZM115.077 58.3041C114.826 58.3026 114.582 58.2187 114.383 58.0651C114.183 57.9115 114.04 57.6966 113.975 57.4537C113.937 57.3073 113.928 57.1548 113.949 57.005C113.97 56.8553 114.02 56.7112 114.097 56.5809C114.174 56.4507 114.276 56.3369 114.397 56.246C114.518 56.1552 114.655 56.0892 114.802 56.0517L129.393 52.1444C129.538 52.1028 129.69 52.0908 129.839 52.1089C129.989 52.1271 130.133 52.1751 130.264 52.2501C130.395 52.3251 130.509 52.4256 130.6 52.5456C130.691 52.6657 130.758 52.8028 130.795 52.9489C130.836 53.0938 130.849 53.2455 130.83 53.3952C130.812 53.5448 130.764 53.6893 130.689 53.82C130.614 53.9508 130.514 54.0651 130.394 54.1563C130.274 54.2475 130.137 54.3136 129.991 54.3508L115.376 58.2581C115.303 58.2879 115.225 58.3035 115.146 58.3041H115.077Z" fill="#BCBCBC"/>
<path d="M144.375 50.4896C144.117 50.492 143.865 50.4071 143.66 50.2486C143.456 50.0901 143.311 49.8673 143.249 49.6162C143.211 49.4698 143.203 49.3174 143.224 49.1676C143.245 49.0178 143.295 48.8737 143.372 48.7435C143.449 48.6132 143.55 48.4994 143.671 48.4086C143.792 48.3178 143.93 48.2518 144.076 48.2143L150.717 46.4445C150.864 46.3994 151.018 46.3845 151.17 46.4009C151.322 46.4173 151.469 46.4646 151.603 46.5399C151.736 46.6152 151.853 46.717 151.945 46.8389C152.038 46.9608 152.105 47.1003 152.142 47.2489C152.18 47.3953 152.189 47.5478 152.168 47.6975C152.147 47.8473 152.096 47.9915 152.019 48.1217C151.943 48.252 151.841 48.3658 151.72 48.4566C151.599 48.5474 151.461 48.6135 151.315 48.651L144.674 50.4437L144.375 50.4896Z" fill="#BCBCBC"/>
<path d="M155.336 68.0952H141.939C141.637 68.0893 141.348 67.9663 141.134 67.752C140.919 67.5378 140.796 67.2489 140.791 66.946C140.791 66.6412 140.912 66.3489 141.127 66.1334C141.342 65.9179 141.635 65.7968 141.939 65.7968H155.336C155.641 65.7968 155.933 65.9179 156.148 66.1334C156.364 66.3489 156.485 66.6412 156.485 66.946C156.485 67.2508 156.364 67.543 156.148 67.7586C155.933 67.9741 155.641 68.0952 155.336 68.0952Z" fill="#BCBCBC"/>
<path d="M128.566 68.0952H115.192C114.887 68.0952 114.595 67.9741 114.38 67.7586C114.164 67.543 114.043 67.2508 114.043 66.946C114.043 66.6412 114.164 66.3489 114.38 66.1334C114.595 65.9179 114.887 65.7968 115.192 65.7968H128.566C128.87 65.7968 129.163 65.9179 129.378 66.1334C129.594 66.3489 129.715 66.6412 129.715 66.946C129.715 67.2508 129.594 67.543 129.378 67.7586C129.163 67.9741 128.87 68.0952 128.566 68.0952Z" fill="#BCBCBC"/>
<path d="M42.1663 68.0952H28.7698C28.4669 68.0893 28.1781 67.9663 27.9639 67.752C27.7497 67.5378 27.6267 67.2489 27.6208 66.946C27.6208 66.6412 27.7418 66.3489 27.9573 66.1334C28.1728 65.9179 28.4651 65.7968 28.7698 65.7968H42.1663C42.4711 65.7968 42.7632 65.9179 42.9787 66.1334C43.1941 66.3489 43.3153 66.6412 43.3153 66.946C43.3153 67.2508 43.1941 67.543 42.9787 67.7586C42.7632 67.9741 42.4711 68.0952 42.1663 68.0952Z" fill="#BCBCBC"/>
<path d="M15.3731 68.0952H1.97657C1.67369 68.0893 1.38489 67.9663 1.17069 67.752C0.956485 67.5378 0.833519 67.2489 0.827637 66.946C0.827637 66.6412 0.948771 66.3489 1.16424 66.1334C1.3797 65.9179 1.67185 65.7968 1.97657 65.7968H15.3731C15.6778 65.7968 15.9701 65.9179 16.1856 66.1334C16.4011 66.3489 16.5221 66.6412 16.5221 66.946C16.5221 67.2508 16.4011 67.543 16.1856 67.7586C15.9701 67.9741 15.6778 68.0952 15.3731 68.0952Z" fill="#BCBCBC"/>
<path d="M109.172 87.0337V51.7308L81.8732 27.368C81.8732 27.368 81.9881 27.2301 82.0571 27.2071C82.0948 27.108 82.1583 27.0208 82.241 26.9543C82.4817 26.6226 82.675 26.2591 82.8154 25.8741C82.8252 25.8055 82.8252 25.7358 82.8154 25.6672C82.9721 25.2318 83.0574 24.7739 83.0681 24.3112C83.0703 23.2968 82.7248 22.3123 82.0892 21.5219C81.4536 20.7314 80.5664 20.1827 79.5754 19.9672V19.6684C79.5754 17.5539 79.5753 15.4394 79.4145 13.302C79.2536 11.1645 79.2076 9.02696 79.0928 6.88947C78.9779 4.75199 78.8171 2.63749 78.5873 0.5C78.3575 2.63749 78.1967 4.75199 78.0818 6.88947C77.9669 9.02696 77.852 11.1645 77.7831 13.302C77.7142 15.4394 77.6452 17.5539 77.5992 19.6684V19.9672C76.6062 20.1788 75.7166 20.7264 75.0803 21.5178C74.4441 22.3091 74.1 23.2957 74.1064 24.3112C74.0945 24.7759 74.1806 25.238 74.3592 25.6672C74.3592 25.6672 74.3592 25.8051 74.3592 25.8741C74.5323 26.2572 74.7482 26.6196 75.0026 26.9543C75.0394 27.0482 75.0941 27.134 75.1635 27.2071C75.2263 27.2436 75.2749 27.3003 75.3014 27.368L48.1407 51.7308V87.0337H32.4692L37.6854 105.191V112.086H119.604V105.191L124.866 87.0108L109.172 87.0337ZM54.7355 57.1549C57.424 56.5573 60.1814 56.0287 62.9389 55.638C65.1218 55.3162 67.3278 55.0864 69.5567 54.8795C72.5899 54.6267 75.6231 54.4888 78.7482 54.5118C81.8732 54.5347 84.7915 54.6267 87.9396 54.8795C90.2375 55.0864 92.3515 55.3162 94.5344 55.638C97.3149 56.0287 100.049 56.5573 102.761 57.1549V76.2544H54.9194L54.7355 57.1549Z" fill="#707070"/>
<path d="M54.7356 57.132C57.4241 56.5344 60.1815 56.0058 62.939 55.615C65.1219 55.2933 67.3279 55.0634 69.5568 54.8565C72.59 54.6037 75.6232 54.4659 78.7483 54.4889C81.8733 54.5119 84.7916 54.6037 87.9397 54.8565C90.2376 55.0634 92.3516 55.2933 94.5345 55.615C97.315 56.0058 100.049 56.5344 102.761 57.132V76.2315H54.9195L54.7356 57.132Z" fill="#BCBCBC"/>
</g>
<defs>
<clipPath id="clip0_1_90">
<rect width="156" height="266" fill="white" transform="translate(0.5 0.5)"/>
</clipPath>
</defs>
</svg>
