<svg width="190" height="180" viewBox="0 0 190 180" fill="none" xmlns="http://www.w3.org/2000/svg">
<g clip-path="url(#clip0_166_529)">
<path d="M134 254.919H106.961V184.096L82.8095 194.254V255H56L61.2702 115.02H82.8095V169.265L106.961 167.233V115H128.707L134 254.919Z" fill="white"/>
<path d="M129.372 182.245L60.9414 203.138L62.2512 166.364L65.675 165.306L125.419 147.057L128.82 146C128.981 161.629 129.372 182.245 129.372 182.245Z" fill="white"/>
<path d="M125.672 94.5337V59.2308L98.3732 34.868C98.3732 34.868 98.4881 34.7301 98.5571 34.7071C98.5948 34.608 98.6583 34.5208 98.741 34.4543C98.9817 34.1226 99.175 33.7591 99.3154 33.3741C99.3252 33.3055 99.3252 33.2358 99.3154 33.1672C99.4721 32.7318 99.5574 32.2739 99.5681 31.8112C99.5703 30.7968 99.2248 29.8123 98.5892 29.0219C97.9536 28.2314 97.0664 27.6827 96.0754 27.4672V27.1684C96.0754 25.0539 96.0753 22.9394 95.9145 20.802C95.7536 18.6645 95.7076 16.527 95.5928 14.3895C95.4779 12.252 95.3171 10.1375 95.0873 8C94.8575 10.1375 94.6967 12.252 94.5818 14.3895C94.4669 16.527 94.352 18.6645 94.2831 20.802C94.2142 22.9394 94.1452 25.0539 94.0992 27.1684V27.4672C93.1062 27.6788 92.2166 28.2264 91.5803 29.0178C90.9441 29.8091 90.6 30.7957 90.6064 31.8112C90.5945 32.2759 90.6806 32.738 90.8592 33.1672C90.8592 33.1672 90.8592 33.3051 90.8592 33.3741C91.0323 33.7572 91.2482 34.1196 91.5026 34.4543C91.5394 34.5482 91.5941 34.634 91.6635 34.7071C91.7263 34.7436 91.7749 34.8003 91.8014 34.868L64.6407 59.2308V94.5337H48.9692L54.1854 112.691V119.586H136.104V112.691L141.366 94.5108L125.672 94.5337ZM71.2355 64.6549C73.924 64.0573 76.6814 63.5287 79.4389 63.138C81.6218 62.8162 83.8278 62.5864 86.0567 62.3795C89.0899 62.1267 92.1231 61.9888 95.2482 62.0118C98.3732 62.0347 101.292 62.1267 104.44 62.3795C106.737 62.5864 108.851 62.8162 111.034 63.138C113.815 63.5287 116.549 64.0573 119.261 64.6549V83.7544H71.4194L71.2355 64.6549Z" fill="white"/>
</g>
<defs>
<clipPath id="clip0_166_529">
<rect width="190" height="180" fill="white"/>
</clipPath>
</defs>
</svg>
